HIERARCHY
ROOT Hips
{
	OFFSET 0.000000 0.000000 0.000000
	CHANNELS 6 Xposition Yposition Zposition Xrotation Yrotation Zrotation
	JOINT LeftUpLeg_virtual
	{
		OFFSET 0.000000 0.000000 0.000000
		CHANNELS 3 Xrotation Yrotation Zrotation
		JOINT LeftUpLeg
		{
			OFFSET 10.205400 -3.823500 0.155100
			CHANNELS 3 Xrotation Yrotation Zrotation
			JOINT LeftLeg
			{
				OFFSET 0.708757 -12.982077 0.567790
				CHANNELS 3 Xrotation Yrotation Zrotation
				JOINT LeftFoot
				{
					OFFSET -0.708756 -10.717838 -2.184338
					CHANNELS 3 Xrotation Yrotation Zrotation
					JOINT LeftToeBase
					{
						OFFSET 0.108149 -7.191104 7.560241
						CHANNELS 3 Xrotation Yrotation Zrotation
						JOINT LeftToe_End
						{
							OFFSET 0.070230 0.081724 4.490308
							CHANNELS 3 Xrotation Yrotation Zrotation
							End Site
							{
								OFFSET 0 0 0
							}
						}
					}
				}
			}
		}
	}
	JOINT RightUpLeg_virtual
	{
		OFFSET 0.000000 0.000000 0.000000
		CHANNELS 3 Xrotation Yrotation Zrotation
		JOINT RightUpLeg
		{
			OFFSET -10.205400 -3.823500 0.005500
			CHANNELS 3 Xrotation Yrotation Zrotation
			JOINT RightLeg
			{
				OFFSET -0.708756 -12.982134 0.610632
				CHANNELS 3 Xrotation Yrotation Zrotation
				JOINT RightFoot
				{
					OFFSET 0.708754 -10.717769 -1.945823
					CHANNELS 3 Xrotation Yrotation Zrotation
					JOINT RightToeBase
					{
						OFFSET -0.108140 -7.191069 7.372968
						CHANNELS 3 Xrotation Yrotation Zrotation
						JOINT RightToe_End
						{
							OFFSET -0.070227 0.081735 4.479403
							CHANNELS 3 Xrotation Yrotation Zrotation
							End Site
							{
								OFFSET 0 0 0
							}
						}
					}
				}
			}
		}
	}
	JOINT Spine_virtual
	{
		OFFSET 0.000000 0.000000 0.000000
		CHANNELS 3 Xrotation Yrotation Zrotation
		JOINT Spine
		{
			OFFSET 0.000000 6.876099 0.125700
			CHANNELS 3 Xrotation Yrotation Zrotation
			JOINT Spine1
			{
				OFFSET 0.000000 5.730043 0.104720
				CHANNELS 3 Xrotation Yrotation Zrotation
				JOINT Spine1_split
				{
					OFFSET 0.000000 5.730043 0.104720
					CHANNELS 3 Xrotation Yrotation Zrotation
					JOINT Spine2
					{
						OFFSET 0.000000 5.730043 0.104720
						CHANNELS 3 Xrotation Yrotation Zrotation
						JOINT Neck_virtual
						{
							OFFSET 0.000000 0.000000 0.000000
							CHANNELS 3 Xrotation Yrotation Zrotation
							JOINT Neck
							{
								OFFSET 0.000000 10.314075 0.188496
								CHANNELS 3 Xrotation Yrotation Zrotation
								JOINT Head
								{
									OFFSET 0.000000 7.643700 -2.377400
									CHANNELS 3 Xrotation Yrotation Zrotation
									JOINT HeadTop_End
									{
										OFFSET 0.000000 43.788605 -13.619600
										CHANNELS 3 Xrotation Yrotation Zrotation
										End Site
										{
											OFFSET 0 0 0
										}
									}
								}
							}
						}
						JOINT LeftShoulder_virtual
						{
							OFFSET 0.000000 0.000000 0.000000
							CHANNELS 3 Xrotation Yrotation Zrotation
							JOINT LeftShoulder
							{
								OFFSET 2.196100 4.412489 0.087492
								CHANNELS 3 Xrotation Yrotation Zrotation
								JOINT LeftShoulder_split
								{
									OFFSET 2.196100 4.412489 0.087492
									CHANNELS 3 Xrotation Yrotation Zrotation
									JOINT LeftArm
									{
										OFFSET 8.771219 -2.981674 -0.026999
										CHANNELS 3 Xrotation Yrotation Zrotation
										JOINT LeftForeArm
										{
											OFFSET 8.512804 0.000000 -0.000000
											CHANNELS 3 Xrotation Yrotation Zrotation
											JOINT LeftHand
											{
												OFFSET 18.484802 0.000000 -0.000000
												CHANNELS 3 Xrotation Yrotation Zrotation
												End Site
												{
													OFFSET 0 0 0
												}
											}
										}
									}
								}
							}
						}
						JOINT RightShoulder_virtual
						{
							OFFSET 0.000000 0.000000 0.000000
							CHANNELS 3 Xrotation Yrotation Zrotation
							JOINT RightShoulder
							{
								OFFSET -2.196100 4.412496 0.070690
								CHANNELS 3 Xrotation Yrotation Zrotation
								JOINT RightShoulder_split
								{
									OFFSET -2.196100 4.412496 0.070690
									CHANNELS 3 Xrotation Yrotation Zrotation
									JOINT RightArm
									{
										OFFSET -8.771282 -2.981682 -0.094208
										CHANNELS 3 Xrotation Yrotation Zrotation
										JOINT RightForeArm
										{
											OFFSET -8.494598 0.000000 0.000000
											CHANNELS 3 Xrotation Yrotation Zrotation
											JOINT RightHand
											{
												OFFSET -18.483803 0.000000 0.000001
												CHANNELS 3 Xrotation Yrotation Zrotation
												End Site
												{
													OFFSET 0 0 0
												}
											}
										}
									}
								}
							}
						}
					}
				}
			}
		}
	}
}
MOTION
Frames: 10
Frame Time: 0.03333333
3.355635 33.017529 5.914815 0.000000 0.000000 0.000000 -1.432827 9.298246 -3.658758 7.428466 11.487639 8.090619 20.403105 -8.052117 -0.229857 -31.355571 2.504039 1.031369 -1.565139 -0.546707 -0.573411 0.000000 0.000000 0.000000 -0.781603 8.063795 -3.891937 -30.137865 -7.329061 -3.194644 30.252124 0.549866 0.080754 -2.404012 1.796882 7.570484 3.696392 0.709453 0.622118 0.000000 0.000000 0.000000 -0.556645 8.799220 -3.779768 11.688574 -1.839677 2.099172 0.819366 -1.696929 0.870345 0.764666 -1.074935 0.490519 0.000000 0.000000 0.000000 -3.075263 -1.395548 1.027971 -0.997353 -0.151653 5.142987 -3.887062 -0.003067 -4.509831 0.000000 0.000000 0.000000 -3.270284 -1.598441 0.959627 0.851196 -1.025709 -3.248660 -1.586655 -0.662501 -0.123568 -0.805801 -10.073666 -74.612672 10.461701 -13.137235 -3.229799 0.000000 0.000000 0.000000 -3.326515 -1.862261 1.078332 2.385173 -0.151723 8.118698 -2.641147 1.124435 -1.552398 2.033579 10.497071 71.284335 11.192820 19.139865 3.203282 0.000000 0.000000 0.000000 
3.514970 33.261189 6.621236 0.000000 0.000000 0.000000 -1.259920 9.977246 -4.373611 9.542553 11.132468 8.056418 18.469040 -8.631102 0.173137 -31.095242 3.197663 0.456002 -2.630162 -0.629064 -0.760732 0.000000 0.000000 0.000000 -0.556253 8.481936 -4.651412 -31.052571 -6.967624 -1.794381 24.016957 2.428320 -0.112670 -1.791123 2.315006 8.855783 4.109545 -1.618442 -0.419856 0.000000 0.000000 0.000000 -0.266803 9.147221 -4.430212 11.732482 -1.988232 2.785242 0.550089 -1.890067 0.963689 0.722781 -0.996489 0.472766 0.000000 0.000000 0.000000 -3.217934 -1.546748 1.125709 -1.214387 -0.303068 4.980384 -4.157741 -0.066364 -5.235212 0.000000 0.000000 0.000000 -3.446654 -1.723955 0.947490 0.873833 -1.113794 -3.149998 -1.509835 -0.298434 -0.086527 -1.111842 -10.748533 -74.393041 10.703680 -13.642726 -3.623713 0.000000 0.000000 0.000000 -3.356223 -1.943728 1.158947 2.523783 -0.873397 8.097991 -2.654105 1.008007 -1.869920 2.142461 10.877596 71.154343 10.877599 18.740755 4.055132 0.000000 0.000000 0.000000 
3.643729 33.470997 7.383639 0.000000 0.000000 0.000000 -1.110185 10.709981 -5.016169 11.588707 10.240331 8.332112 16.716538 -8.975402 0.601142 -30.395216 4.291178 0.032482 -3.276648 -0.685452 -1.267643 0.000000 0.000000 0.000000 -0.453894 9.286864 -5.359993 -31.667670 -6.472414 -0.819942 18.685354 4.244822 -0.110272 -0.668840 2.991595 9.519063 3.614407 -3.899785 -1.292323 0.000000 0.000000 0.000000 -0.101569 9.459105 -5.046890 12.037273 -2.269792 3.294399 0.254276 -2.170509 1.200330 0.531256 -0.736368 0.461365 0.000000 0.000000 0.000000 -3.385961 -1.803993 1.371689 -1.612671 -0.422490 4.633050 -4.557941 -0.232031 -5.884722 0.000000 0.000000 0.000000 -3.671600 -1.939086 1.090455 0.883896 -1.274654 -3.333074 -1.499608 0.225635 -0.178093 -1.115077 -11.556829 -73.976795 10.839140 -14.002941 -4.071051 0.000000 0.000000 0.000000 -3.477695 -2.135814 1.352736 2.632150 -1.522641 7.851028 -2.580859 1.011114 -2.090947 2.372899 11.445729 71.356031 10.479329 18.762711 4.646658 0.000000 0.000000 0.000000 
3.713310 33.585880 8.209336 0.000000 0.000000 0.000000 -1.061954 11.365280 -5.572100 13.762398 9.156176 8.950848 15.186045 -9.017829 1.034217 -30.125663 5.569672 -0.208500 -3.179881 -0.760296 -1.814405 0.000000 0.000000 0.000000 -0.489512 10.262000 -5.938632 -32.275308 -6.016747 -0.374739 14.547277 5.475893 0.064598 0.382711 3.465217 8.882602 3.594421 -5.796799 -1.750177 0.000000 0.000000 0.000000 -0.091682 9.604121 -5.581480 12.532329 -2.592103 3.596979 -0.052634 -2.488711 1.509157 0.411947 -0.319849 0.388205 0.000000 0.000000 0.000000 -3.538379 -2.116954 1.683559 -2.210564 -0.545428 4.227414 -5.091481 -0.493907 -6.400333 0.000000 0.000000 0.000000 -3.908190 -2.205062 1.335815 0.878428 -1.451525 -3.715505 -1.535061 0.671412 -0.237538 -0.917517 -12.462218 -73.445454 10.870229 -14.439694 -4.510017 0.000000 0.000000 0.000000 -3.645114 -2.400880 1.592048 2.685572 -2.078262 7.453427 -2.445279 1.093810 -2.111584 2.667402 12.119522 71.830251 10.005162 19.073988 5.034974 0.000000 0.000000 0.000000 
3.708237 33.551155 9.175184 0.000000 0.000000 0.000000 -1.079322 12.071120 -5.983677 15.926589 8.412109 9.886082 13.797700 -9.094985 1.317968 -30.674434 6.749269 -1.186821 -3.220485 -0.933188 -1.733863 0.000000 0.000000 0.000000 -0.547115 11.203291 -6.350403 -32.919015 -5.703343 -0.450758 12.215063 6.098269 0.351120 1.514105 3.658435 7.188349 4.270723 -6.995982 -1.784569 0.000000 0.000000 0.000000 -0.320361 9.622446 -5.905409 13.141731 -2.874402 3.705965 -0.354298 -2.780056 1.801434 0.323130 0.302489 0.236538 0.000000 0.000000 0.000000 -3.662108 -2.419491 1.961932 -2.955912 -0.676378 3.891317 -5.679826 -0.817434 -6.755689 0.000000 0.000000 0.000000 -4.117806 -2.452530 1.586241 0.867365 -1.569794 -4.200846 -1.595145 0.728262 -0.248307 -0.651677 -13.346400 -72.908943 10.834327 -15.125935 -4.880097 0.000000 0.000000 0.000000 -3.794797 -2.658870 1.789712 2.700564 -2.534643 7.030601 -2.259956 1.241762 -1.908145 2.907749 12.732815 72.429396 9.482211 19.477804 5.296897 0.000000 0.000000 0.000000 
3.588373 33.375267 10.251815 0.000000 0.000000 0.000000 -1.074483 12.781505 -6.185183 17.980442 8.350164 10.834407 12.755646 -9.217538 1.399015 -31.745930 7.512853 -3.057847 -4.642576 -1.304117 -0.593986 0.000000 0.000000 0.000000 -0.580743 12.194787 -6.547922 -33.591574 -5.594741 -0.967012 11.854768 6.247263 0.686575 3.446970 3.640918 5.220310 4.620151 -7.377278 -1.667416 0.000000 0.000000 0.000000 -0.657954 9.642381 -5.978661 13.755974 -3.041584 3.658585 -0.642923 -3.000371 1.997831 0.406319 0.860818 0.108369 0.000000 0.000000 0.000000 -3.766408 -2.642502 2.123182 -3.740827 -0.841050 3.699478 -6.259153 -1.167392 -6.913748 0.000000 0.000000 0.000000 -4.300744 -2.617908 1.770127 0.857785 -1.533900 -4.664225 -1.691328 0.350188 -0.146553 -0.472488 -14.033545 -72.477227 10.786506 -16.092976 -5.135962 0.000000 0.000000 0.000000 -3.899341 -2.849062 1.871769 2.691247 -2.868786 6.669246 -2.091160 1.348855 -1.502917 2.964682 13.220948 73.023704 8.937724 19.793306 5.487691 0.000000 0.000000 0.000000 
3.378314 33.107628 11.447283 0.000000 0.000000 0.000000 -1.160519 13.591833 -6.131333 19.502193 8.886906 11.781715 12.800675 -9.698636 1.290194 -31.962550 7.988952 -6.195208 -7.405733 -1.903917 1.461675 0.000000 0.000000 0.000000 -0.469960 13.143760 -6.520676 -34.399206 -5.678713 -1.690859 13.015192 6.279086 1.064906 6.321974 3.489658 3.833143 4.224881 -7.063817 -1.564903 0.000000 0.000000 0.000000 -1.062954 9.869457 -5.787997 14.298630 -3.076852 3.521677 -0.930243 -3.118354 2.053699 0.697444 1.265038 0.061632 0.000000 0.000000 0.000000 -3.885201 -2.756383 2.136048 -4.488531 -1.041270 3.684706 -6.737257 -1.489668 -6.918589 0.000000 0.000000 0.000000 -4.467219 -2.674849 1.831163 0.868005 -1.315804 -5.020962 -1.719787 -0.324669 0.208912 -0.483290 -14.305290 -72.249406 10.733045 -17.161950 -5.283103 0.000000 0.000000 0.000000 -3.927181 -2.936104 1.813318 2.703598 -3.087192 6.444942 -1.981783 1.338941 -0.977434 2.745486 13.505382 73.496776 8.404575 20.042867 5.633342 0.000000 0.000000 0.000000 
3.078724 32.806713 12.793770 0.000000 0.000000 0.000000 -1.193672 14.488523 -5.867690 20.215890 9.805547 12.632516 14.256511 -9.968314 1.052753 -30.860506 8.266953 -9.441524 -10.179874 -2.684440 3.431310 0.000000 0.000000 0.000000 -0.289735 14.199600 -6.374502 -35.011242 -5.929563 -2.257208 15.203123 6.382624 1.407985 9.624432 3.354177 3.056534 3.310970 -6.177502 -1.528121 0.000000 0.000000 0.000000 -1.469733 10.386550 -5.423159 14.692527 -3.008810 3.413027 -1.227633 -3.158972 1.971961 0.920025 1.332626 0.196353 0.000000 0.000000 0.000000 -4.058118 -2.778032 2.025582 -5.115005 -1.209960 3.820093 -7.025496 -1.642040 -6.821605 0.000000 0.000000 0.000000 -4.635006 -2.629679 1.765103 0.906524 -0.892935 -5.188828 -1.673059 -1.014994 0.611967 -0.643234 -14.072476 -72.288987 10.667303 -18.060945 -5.357106 0.000000 0.000000 0.000000 -3.912767 -2.933314 1.621547 2.754591 -3.211356 6.375021 -1.922558 1.244640 -0.436903 2.277784 13.692232 73.735649 7.913381 20.348911 5.755512 0.000000 0.000000 0.000000 
2.731624 32.530300 14.218603 0.000000 0.000000 0.000000 -1.323567 15.255472 -5.528352 20.103600 10.574276 13.455588 17.221840 -9.796515 0.919740 -27.894634 8.713462 -12.243523 -12.207950 -3.367052 4.360952 0.000000 0.000000 0.000000 -0.054296 15.238266 -6.203746 -35.154126 -6.386185 -2.324834 17.682390 6.310586 1.663713 12.444068 3.073704 2.263976 2.360683 -4.963901 -1.454285 0.000000 0.000000 0.000000 -1.866283 11.014900 -5.106154 14.925553 -2.880362 3.452920 -1.540357 -3.151530 1.790310 1.080627 1.060245 0.314537 0.000000 0.000000 0.000000 -4.298254 -2.748709 1.842715 -5.575130 -1.324163 4.014543 -7.095868 -1.573274 -6.691097 0.000000 0.000000 0.000000 -4.821571 -2.528958 1.606997 0.984532 -0.315550 -5.127942 -1.539827 -1.510852 0.890250 -0.895548 -13.373624 -72.593996 10.558661 -18.590769 -5.398917 0.000000 0.000000 0.000000 -3.900537 -2.884317 1.353506 2.845694 -3.233631 6.446599 -1.924704 1.132984 0.038453 1.661916 13.950639 73.724932 7.494014 20.776863 5.864221 0.000000 0.000000 0.000000 
2.375612 32.323074 15.671646 0.000000 0.000000 0.000000 -1.478630 15.836043 -5.319616 19.825251 10.727553 14.075044 20.780398 -8.871364 1.004703 -24.150738 9.574015 -13.515202 -13.852380 -3.812020 3.842308 0.000000 0.000000 0.000000 0.072641 15.984811 -6.140892 -34.667308 -7.001816 -1.643964 20.164199 6.049064 1.854441 14.019659 2.636283 1.086120 2.071912 -3.629104 -1.323242 0.000000 0.000000 0.000000 -2.219424 11.567011 -5.022251 15.032302 -2.744688 3.744577 -1.874251 -3.130953 1.552953 1.138227 0.749026 0.437255 0.000000 0.000000 0.000000 -4.586584 -2.726125 1.654039 -5.844091 -1.327170 4.202937 -6.909058 -1.236146 -6.589198 0.000000 0.000000 0.000000 -5.000339 -2.427875 1.400014 1.100059 0.315023 -4.831397 -1.256700 -1.838984 0.937915 -1.090394 -12.422818 -73.078769 10.408948 -18.699909 -5.461915 0.000000 0.000000 0.000000 -3.910832 -2.826022 1.076942 2.967367 -3.178390 6.625476 -1.968150 1.141755 0.371115 1.072170 14.419141 73.426910 7.157185 21.299861 5.970883 0.000000 0.000000 0.000000 
